<?xml version="1.0" encoding="UTF-8" standalone="no"?>
<!-- Created with Inkscape (http://www.inkscape.org/) -->

<svg
   xmlns:dc="http://purl.org/dc/elements/1.1/"
   xmlns:cc="http://creativecommons.org/ns#"
   xmlns:rdf="http://www.w3.org/1999/02/22-rdf-syntax-ns#"
   xmlns:svg="http://www.w3.org/2000/svg"
   xmlns="http://www.w3.org/2000/svg"
   xmlns:sodipodi="http://sodipodi.sourceforge.net/DTD/sodipodi-0.dtd"
   xmlns:inkscape="http://www.inkscape.org/namespaces/inkscape"
   width="1544"
   height="500"
   viewBox="0 0 1544 500.00001"
   id="svg2"
   version="1.1"
   inkscape:version="0.91 r13725"
   sodipodi:docname="banner.svg"
   inkscape:export-filename="/home/john/Desktop/banner-1544x500.png"
   inkscape:export-xdpi="90"
   inkscape:export-ydpi="90">
  <defs
     id="defs4">
    <filter
       style="color-interpolation-filters:sRGB;"
       inkscape:label="Drop Shadow"
       id="filter4211">
      <feFlood
         flood-opacity="0.498039"
         flood-color="rgb(0,0,0)"
         result="flood"
         id="feFlood4213" />
      <feComposite
         in="flood"
         in2="SourceGraphic"
         operator="in"
         result="composite1"
         id="feComposite4215" />
      <feGaussianBlur
         in="composite1"
         stdDeviation="3"
         result="blur"
         id="feGaussianBlur4217" />
      <feOffset
         dx="6"
         dy="6"
         result="offset"
         id="feOffset4219" />
      <feComposite
         in="SourceGraphic"
         in2="offset"
         operator="over"
         result="composite2"
         id="feComposite4221" />
    </filter>
    <filter
       style="color-interpolation-filters:sRGB;"
       inkscape:label="Drop Shadow"
       id="filter4223">
      <feFlood
         flood-opacity="0.498039"
         flood-color="rgb(0,0,0)"
         result="flood"
         id="feFlood4225" />
      <feComposite
         in="flood"
         in2="SourceGraphic"
         operator="in"
         result="composite1"
         id="feComposite4227" />
      <feGaussianBlur
         in="composite1"
         stdDeviation="3"
         result="blur"
         id="feGaussianBlur4229" />
      <feOffset
         dx="6"
         dy="6"
         result="offset"
         id="feOffset4231" />
      <feComposite
         in="SourceGraphic"
         in2="offset"
         operator="over"
         result="composite2"
         id="feComposite4233" />
    </filter>
    <filter
       style="color-interpolation-filters:sRGB;"
       inkscape:label="Drop Shadow"
       id="filter4264">
      <feFlood
         flood-opacity="0.498039"
         flood-color="rgb(0,0,0)"
         result="flood"
         id="feFlood4266" />
      <feComposite
         in="flood"
         in2="SourceGraphic"
         operator="in"
         result="composite1"
         id="feComposite4268" />
      <feGaussianBlur
         in="composite1"
         stdDeviation="3"
         result="blur"
         id="feGaussianBlur4270" />
      <feOffset
         dx="6"
         dy="6"
         result="offset"
         id="feOffset4272" />
      <feComposite
         in="SourceGraphic"
         in2="offset"
         operator="over"
         result="composite2"
         id="feComposite4274" />
    </filter>
    <filter
       style="color-interpolation-filters:sRGB;"
       inkscape:label="Drop Shadow"
       id="filter4276">
      <feFlood
         flood-opacity="0.498039"
         flood-color="rgb(0,0,0)"
         result="flood"
         id="feFlood4278" />
      <feComposite
         in="flood"
         in2="SourceGraphic"
         operator="in"
         result="composite1"
         id="feComposite4280" />
      <feGaussianBlur
         in="composite1"
         stdDeviation="3"
         result="blur"
         id="feGaussianBlur4282" />
      <feOffset
         dx="6"
         dy="6"
         result="offset"
         id="feOffset4284" />
      <feComposite
         in="SourceGraphic"
         in2="offset"
         operator="over"
         result="composite2"
         id="feComposite4286" />
    </filter>
    <filter
       style="color-interpolation-filters:sRGB;"
       inkscape:label="Drop Shadow"
       id="filter4957">
      <feFlood
         flood-opacity="0.498039"
         flood-color="rgb(0,0,0)"
         result="flood"
         id="feFlood4959" />
      <feComposite
         in="flood"
         in2="SourceGraphic"
         operator="in"
         result="composite1"
         id="feComposite4961" />
      <feGaussianBlur
         in="composite1"
         stdDeviation="3"
         result="blur"
         id="feGaussianBlur4963" />
      <feOffset
         dx="6"
         dy="6"
         result="offset"
         id="feOffset4965" />
      <feComposite
         in="SourceGraphic"
         in2="offset"
         operator="over"
         result="composite2"
         id="feComposite4967" />
    </filter>
  </defs>
  <sodipodi:namedview
     id="base"
     pagecolor="#ffffff"
     bordercolor="#666666"
     borderopacity="1.0"
     inkscape:pageopacity="0.0"
     inkscape:pageshadow="2"
     inkscape:zoom="0.9644024"
     inkscape:cx="1233.3115"
     inkscape:cy="237.22722"
     inkscape:document-units="px"
     inkscape:current-layer="layer1"
     showgrid="false"
     units="px"
     inkscape:window-width="1861"
     inkscape:window-height="1056"
     inkscape:window-x="59"
     inkscape:window-y="24"
     inkscape:window-maximized="1" />
  <metadata
     id="metadata7">
    <rdf:RDF>
      <cc:Work
         rdf:about="">
        <dc:format>image/svg+xml</dc:format>
        <dc:type
           rdf:resource="http://purl.org/dc/dcmitype/StillImage" />
        <dc:title />
      </cc:Work>
    </rdf:RDF>
  </metadata>
  <g
     inkscape:label="Layer 1"
     inkscape:groupmode="layer"
     id="layer1"
     transform="translate(0,-552.36214)">
    <rect
       style="color:#000000;clip-rule:nonzero;display:inline;overflow:visible;visibility:visible;opacity:1;isolation:isolate;mix-blend-mode:normal;color-interpolation:sRGB;color-interpolation-filters:linearRGB;solid-color:#000000;solid-opacity:1;fill:#0b8fd9;fill-opacity:1;fill-rule:nonzero;stroke:#1f215f;stroke-width:9.96623993;stroke-linecap:butt;stroke-linejoin:miter;stroke-miterlimit:4;stroke-dasharray:none;stroke-dashoffset:0;stroke-opacity:1;color-rendering:auto;image-rendering:auto;shape-rendering:auto;text-rendering:auto;enable-background:accumulate"
       id="rect4486"
       width="1534.0337"
       height="490.03375"
       x="3.7076075"
       y="558.62073" />
    <g
       id="g5383"
       transform="matrix(1.0125,0,0,1.0125,-26.688446,-15.746906)"
       style="filter:url(#filter4264)">
      <g
         transform="matrix(7.4074074,0,0,7.4074074,-7460.7055,-795.73875)"
         id="g5353">
        <polyline
           style="fill:none;stroke:#1f215f;stroke-width:4;stroke-linecap:round;stroke-linejoin:round;stroke-opacity:1"
           points="44 12 12 28 44 44"
           id="polyline4458"
           transform="translate(1016.087,188.50594)" />
        <circle
           style="fill:#ffffff"
           cx="1028.087"
           cy="216.50594"
           r="9"
           id="circle4460" />
        <circle
           style="fill:none;stroke:#1f215f;stroke-width:4;stroke-linecap:round;stroke-linejoin:round;stroke-opacity:1"
           cx="1028.087"
           cy="216.50594"
           r="9"
           id="circle4462" />
        <circle
           style="fill:#ffffff"
           cx="1060.087"
           cy="200.50594"
           r="9"
           id="circle4464" />
        <circle
           style="fill:none;stroke:#1f215f;stroke-width:4;stroke-linecap:round;stroke-linejoin:round;stroke-opacity:1"
           cx="1060.087"
           cy="200.50594"
           r="9"
           id="circle4466" />
        <circle
           style="fill:#ffffff"
           cx="1060.087"
           cy="232.50594"
           r="9"
           id="circle4468" />
        <circle
           style="fill:none;stroke:#1f215f;stroke-width:4;stroke-linecap:round;stroke-linejoin:round;stroke-opacity:1"
           cx="1060.087"
           cy="232.50594"
           r="9"
           id="circle4470" />
      </g>
      <g
         style="fill:#000000"
         inkscape:transform-center-y="78.822873"
         inkscape:transform-center-x="-164.21432"
         transform="matrix(0.26526315,0,0,0.26526315,108.37906,788.43249)"
         id="g4377">
        <path
           style="fill:#000000"
           inkscape:connector-curvature="0"
           d="M 325.7,14.7 C 317.6,6.9 305.3,3 289,3 l -43.5,0 -11.5,0 0,31 -66,0 -5.4,22.2 c 4.5,-2.1 10.9,-4.2 15.3,-5.3 4.4,-1.1 8.8,-0.9 13.1,-0.9 14.6,0 26.5,4.5 35.6,13.3 9.1,8.8 13.6,20 13.6,33.4 0,9.4 -2.3,18.5 -7,27.2 -4.7,8.7 -11.3,15.4 -19.9,20 -3.1,1.6 -6.5,3.1 -10.2,4.1 l 42.4,0 13.5,0 0,-53 25,0 c 18.2,0 31.7,-4.2 40.6,-12.5 8.9,-8.3 13.3,-19.9 13.3,-34.6 0,-14.3 -4.1,-25.4 -12.2,-33.2 z m -37,45.9 c -3.5,3 -9.6,4.4 -18.3,4.4 l -11.4,0 0,-32 13.2,0 c 8.4,0 14.2,1.5 17.2,4.7 3.1,3.2 4.6,6.9 4.6,11.5 0,4.7 -1.8,8.4 -5.3,11.4 z"
           id="path4379" />
        <path
           style="fill:#000000"
           inkscape:connector-curvature="0"
           d="m 176.5,76.3 c -7.9,0 -14.7,4.6 -18,11.2 L 119,81.9 136.8,3 113.2,3 101,3 101,65 51,65 51,3 7,3 l 0,145 44,0 0,-53 50,0 0,53 12.2,0 42,0 c -6.7,-2 -12.5,-4.6 -17.2,-8.1 -4.8,-3.6 -8.7,-7.7 -11.7,-12.3 -3,-4.6 -5.3,-9.7 -7.3,-16.5 l 39.6,-5.7 c 3.3,6.6 10.1,11.1 17.9,11.1 11.1,0 20.1,-9 20.1,-20.1 0,-11.1 -9.1,-20.1 -20.1,-20.1 z"
           id="path4381" />
      </g>
    </g>
    <flowRoot
       xml:space="preserve"
       id="flowRoot5396"
       style="font-style:normal;font-weight:normal;font-size:40px;line-height:125%;font-family:sans-serif;letter-spacing:0px;word-spacing:0px;fill:#ffffff;fill-opacity:1;stroke:none;stroke-width:1px;stroke-linecap:butt;stroke-linejoin:miter;stroke-opacity:1;filter:url(#filter4223)"
       transform="matrix(2.9258349,0,0,2.9258349,-900.03582,424.55824)"><flowRegion
         id="flowRegion5398"><rect
           id="rect5400"
           width="854.7038"
           height="115.78217"
           x="504.44653"
           y="63.008514"
           style="fill:#ffffff" /></flowRegion><flowPara
         id="flowPara4304">H5P SHARING</flowPara></flowRoot>    <text
       xml:space="preserve"
       style="font-style:normal;font-weight:normal;font-size:40px;line-height:100%;font-family:sans-serif;letter-spacing:0px;word-spacing:0px;fill:#ffffff;fill-opacity:1;stroke:none;stroke-width:1px;stroke-linecap:butt;stroke-linejoin:miter;stroke-opacity:1;filter:url(#filter4211)"
       x="569.99731"
       y="805.60907"
       id="text4181"
       sodipodi:linespacing="100%"
       transform="matrix(0.94786552,0,0,0.94786552,21.91179,60.023866)"><tspan
         sodipodi:role="line"
         id="tspan4306"
         x="569.99731"
         y="805.60907">making it even easier to share your content</tspan></text>
    <rect
       style="color:#000000;clip-rule:nonzero;display:inline;overflow:visible;visibility:visible;opacity:1;isolation:isolate;mix-blend-mode:normal;color-interpolation:sRGB;color-interpolation-filters:linearRGB;solid-color:#000000;solid-opacity:1;fill:#ffffff;fill-opacity:1;fill-rule:nonzero;stroke:#1f215f;stroke-width:5.5285182;stroke-linecap:butt;stroke-linejoin:miter;stroke-miterlimit:4;stroke-dasharray:none;stroke-dashoffset:0;stroke-opacity:1;color-rendering:auto;image-rendering:auto;shape-rendering:auto;text-rendering:auto;enable-background:accumulate"
       id="rect4185"
       width="843.13818"
       height="12.971356"
       x="558.68402"
       y="757.12836" />
    <flowRoot
       xml:space="preserve"
       id="flowRoot4286"
       style="fill:black;stroke:none;stroke-opacity:1;stroke-width:1px;stroke-linejoin:miter;stroke-linecap:butt;fill-opacity:1;font-family:sans-serif;font-style:normal;font-weight:normal;font-size:40px;line-height:125%;letter-spacing:0px;word-spacing:0px"><flowRegion
         id="flowRegion4288"><rect
           id="rect4290"
           width="1055.8184"
           height="403.26395"
           x="511.77863"
           y="-76.300858" /></flowRegion><flowPara
         id="flowPara4292"></flowPara></flowRoot>    <flowRoot
       xml:space="preserve"
       id="flowRoot4294"
       style="fill:black;stroke:none;stroke-opacity:1;stroke-width:1px;stroke-linejoin:miter;stroke-linecap:butt;fill-opacity:1;font-family:sans-serif;font-style:normal;font-weight:normal;font-size:40px;line-height:125%;letter-spacing:0px;word-spacing:0px"><flowRegion
         id="flowRegion4296"><rect
           id="rect4298"
           width="1434.1533"
           height="648.15515"
           x="338.74173"
           y="-203.87891" /></flowRegion><flowPara
         id="flowPara4300"></flowPara></flowRoot>    <path
       style="fill:#ffffff;filter:url(#filter4957)"
       d="m 1380.9335,1011.6631 c -2.4989,-0.6876 -4.2494,-1.9917 -5.3544,-3.9891 -0.7436,-1.3443 -0.8447,-1.7995 -0.8399,-3.7826 0.01,-1.8943 0.1266,-2.4858 0.7637,-3.7024 1.5352,-2.93154 4.2988,-4.45964 7.7475,-4.28394 l 1.8786,0.096 5.4283,-8.0315 c 2.9855,-4.4173 5.4338,-8.0996 5.4406,-8.1827 0.01,-0.083 -1.6665,-1.3513 -3.7183,-2.8181 -8.5289,-6.0972 -13.3396,-9.6403 -13.671,-10.0688 -0.2644,-0.3418 -0.3523,-2.6227 -0.3523,-9.1376 0,-4.7752 -0.065,-8.6822 -0.1439,-8.6822 -0.079,0 -4.3105,-1.0145 -9.4029,-2.2544 -5.0923,-1.24 -9.326,-2.2545 -9.4081,-2.2545 -0.082,0 -0.5518,0.6274 -1.0438,1.3942 -4.1244,6.4273 -12.9791,7.3647 -18.4072,1.9488 -5.8907,-5.8775 -4.1575,-15.4356 3.4618,-19.0913 1.9923,-0.9559 2.2762,-1.0142 4.9463,-1.0166 2.7118,0 2.9246,0.043 4.9885,1.0629 3.9176,1.9362 6.1785,5.0787 6.7749,9.4167 0.1663,1.2095 0.3129,2.2224 0.3258,2.2509 0.028,0.061 17.5328,4.3162 17.7563,4.3162 0.084,0 0.1523,-7.0875 0.1523,-15.7499 0,-14.5901 0.036,-15.7929 0.4932,-16.3328 1.201,-1.4194 0.8126,-1.6214 18.5371,9.6376 10.5219,6.6837 16.6821,10.4367 16.7923,10.2305 0.096,-0.1792 0.2483,-4.6478 0.3391,-9.9303 l 0.1652,-9.6046 -1.4951,-0.4713 c -6.537,-2.0606 -11.1329,-9.5507 -10.0876,-16.4404 0.746,-4.9173 3.9174,-9.2298 8.3637,-11.373 6.0076,-2.8958 12.4806,-1.7888 17.2206,2.945 5.9921,5.9841 5.9864,15.199 -0.013,21.1588 -2.3426,2.3271 -4.9446,3.7142 -7.9034,4.2132 l -1.9727,0.3327 -0.2078,9.2812 c -0.1144,5.1046 -0.1778,9.4317 -0.1409,9.6157 0.037,0.1841 4.2518,-2.3373 9.3666,-5.6031 5.1148,-3.2658 12.4538,-7.9499 16.3089,-10.4092 3.8551,-2.4593 7.2302,-4.4715 7.5003,-4.4715 0.2701,0 0.8252,0.2628 1.2336,0.5841 l 0.7425,0.584 0,13.0836 c 0,7.196 0.041,13.0836 0.091,13.0836 0.05,0 2.2377,-0.8339 4.8611,-1.8531 2.6235,-1.0191 5.4179,-2.0995 6.2098,-2.4008 l 1.4399,-0.5477 0.1711,-1.615 c 0.394,-3.7199 2.2342,-6.5893 5.287,-8.2441 1.7365,-0.9413 1.9228,-0.9796 4.7661,-0.9796 2.8358,0 3.0332,0.04 4.7417,0.9666 2.0655,1.1198 3.4782,2.6225 4.5226,4.8104 0.629,1.3177 0.7399,1.93 0.7399,4.0862 0,2.1562 -0.1109,2.7686 -0.7399,4.0862 -1.0444,2.188 -2.4571,3.6907 -4.5226,4.8105 -1.6924,0.9176 -1.9255,0.9666 -4.6008,0.9666 -2.5232,0 -2.988,-0.083 -4.4424,-0.7977 -1.6655,-0.8178 -3.0353,-1.9663 -4.0432,-3.3901 l -0.5706,-0.8061 -6.8851,2.6492 -6.885,2.6492 -0.074,11.6164 -0.074,11.6164 -4.5763,3.3889 c -2.5169,1.8638 -4.8145,3.5479 -5.1058,3.7424 -0.4785,0.3196 0.01,0.757 5.0167,4.5372 l 5.5463,4.1836 1.4648,-0.7304 c 2.2031,-1.0986 3.8365,-1.4023 6.7493,-1.255 3.1833,0.161 5.204,0.8805 7.6144,2.7111 7.7471,5.8837 6.8796,17.98144 -1.6306,22.74064 -5.4148,3.0281 -12.0033,2.1247 -16.3601,-2.2434 -4.5537,-4.56544 -5.344,-11.28344 -1.9838,-16.86224 l 0.9763,-1.6208 -5.2318,-3.9666 c -2.8774,-2.1817 -5.4551,-4.1061 -5.7282,-4.2767 -0.4167,-0.2602 -1.2593,0.2497 -5.2453,3.1742 -17.3314,12.7163 -18.2137,13.3363 -18.9788,13.3363 -0.5647,0 -2.9071,-1.5527 -8.5737,-5.6832 -4.2881,-3.1257 -7.8862,-5.6778 -7.9958,-5.6714 -0.1096,0.01 -2.5958,3.5764 -5.525,7.9335 -4.4366,6.5992 -5.2706,7.9971 -4.9949,8.3721 3.2473,4.41774 1.8625,10.33874 -2.912,12.45074 -1.392,0.6157 -3.8872,0.8915 -5.0848,0.562 z m 3.8808,-4.4926 c 0.848,-0.4872 1.8962,-2.3646 1.8962,-3.396 0,-0.969 -0.8219,-2.5057 -1.6551,-3.0944 -1.7708,-1.25124 -3.9058,-0.97244 -5.376,0.702 -0.6867,0.7821 -0.8595,1.2348 -0.8595,2.2513 0,3.4235 3.0548,5.2261 5.9944,3.5371 z m 81.2175,-4.2521 c 1.8819,-0.9242 3.6956,-2.7959 4.6013,-4.74874 0.6059,-1.3065 0.746,-2.0261 0.7525,-3.8657 0.01,-1.9939 -0.1011,-2.4818 -0.9166,-4.1383 -2.4696,-5.0164 -7.9378,-6.8919 -12.9427,-4.4392 -5.737,2.8116 -7.027,10.5269 -2.5346,15.15874 2.1158,2.1814 3.9009,2.8671 7.2431,2.7823 1.8853,-0.048 2.6938,-0.2074 3.797,-0.7491 z m -59.0504,-28.23884 c -2.9719,-6.2526 -6.2088,-13.0605 -7.1931,-15.1285 -0.9843,-2.068 -1.914,-3.7166 -2.0659,-3.6635 -0.7489,0.2619 -13.513,9.7163 -13.4464,9.9598 0.042,0.155 3.0329,2.4377 6.6457,5.0726 3.6129,2.6349 9.8816,7.2091 13.9306,10.165 4.0489,2.9559 7.4002,5.2818 7.4471,5.1687 0.047,-0.1131 -2.3462,-5.3215 -5.318,-11.5741 z m 20.732,5.9629 c 3.7199,-2.7272 9.7814,-7.1619 13.4702,-9.8551 6.3689,-4.6499 6.6812,-4.9205 6.1997,-5.3711 -0.693,-0.6485 -12.4747,-9.0236 -12.9514,-9.2065 -0.247,-0.095 -0.5743,0.2877 -0.9257,1.082 -0.299,0.6758 -3.4049,7.3113 -6.9021,14.7457 -3.4972,7.4344 -6.3586,13.624 -6.3586,13.7547 0,0.3293 -0.09,0.3913 7.4679,-5.1497 z m -6.9645,-5.7772 c 2.3264,-4.9598 6.5733,-14.027 9.4376,-20.1492 2.8643,-6.1223 5.685,-12.1459 6.2681,-13.3859 6.0397,-12.8427 9.9874,-21.3819 9.9174,-21.452 -0.047,-0.047 -6.7273,4.1583 -14.8454,9.3448 -10.3538,6.615 -14.9952,9.4301 -15.5476,9.4301 -0.5503,0 -5.2012,-2.8015 -15.4387,-9.2997 -8.0582,-5.1148 -14.7063,-9.2996 -14.7738,-9.2996 -0.1321,0 10.665,22.8736 28.5035,60.3846 1.0155,2.1352 1.9369,3.7838 2.0478,3.6635 0.1108,-0.1204 2.1048,-4.2768 4.4311,-9.2366 z m -30.7252,-18.5834 c 3.1397,-2.2892 5.7767,-4.2725 5.86,-4.4073 0.083,-0.1348 -2.6625,-6.1766 -6.1019,-13.4262 -3.4393,-7.2496 -6.4857,-13.6884 -6.7697,-14.3084 -0.5065,-1.1059 -0.5164,-0.7598 -0.5225,18.2805 l -0.01,19.4076 0.9159,-0.692 c 0.5037,-0.3807 3.4847,-2.5651 6.6244,-4.8542 z m 59.5298,-13.7399 c 0,-11.7181 -0.1002,-18.8354 -0.2629,-18.6697 -0.1446,0.1472 -1.6537,3.2478 -3.3536,6.8902 -1.7,3.6423 -4.6252,9.902 -6.5006,13.9103 -1.8753,4.0083 -3.4097,7.387 -3.4097,7.5082 0,0.1212 0.1585,0.2853 0.3523,0.3648 0.1937,0.08 3.127,2.1221 6.5183,4.5391 3.3914,2.417 6.2764,4.3945 6.4111,4.3945 0.1364,0 0.2451,-8.3962 0.2451,-18.9374 z m -97.9279,4.0678 c 1.4959,-0.7724 3.0769,-2.4489 3.7827,-4.0114 1.7345,-3.8398 -0.4622,-8.8659 -4.4972,-10.2895 -2.8178,-0.9942 -6.0888,-0.2653 -8.1759,1.8218 -4.1526,4.1526 -2.3321,11.1336 3.3933,13.012 1.2079,0.3962 4.2728,0.099 5.4971,-0.5329 z m 127.4912,-7.8062 c 0.9442,-0.4935 2.0931,-1.7378 2.6821,-2.9049 0.6202,-1.229 0.6292,-3.6733 0.018,-4.8835 -1.1825,-2.341 -2.877,-3.439 -5.3508,-3.4672 -2.1224,-0.024 -3.8323,0.856 -5.06,2.6047 -0.7645,1.0888 -0.858,1.4442 -0.858,3.2613 0,1.7527 0.1089,2.204 0.7745,3.2097 0.8515,1.2867 1.6466,1.8965 3.2439,2.4878 1.1942,0.4421 3.4011,0.2927 4.5504,-0.3079 z m -57.0395,-30.3132 c 2.3632,-0.8996 5.1542,-3.6928 6.0449,-6.0495 1.6238,-4.2965 0.7191,-8.6909 -2.4396,-11.8496 -5.8093,-5.8093 -15.7194,-3.3647 -18.1541,4.4783 -2.7391,8.8235 5.8391,16.7366 14.5488,13.4208 z"
       id="path4921"
       inkscape:connector-curvature="0"
       transform="matrix(0.83333432,0,0,0.83333432,275.17655,181.14499)" />
  </g>
</svg>
